<svg width="330" height="258" viewBox="0 0 330 258" fill="none" xmlns="http://www.w3.org/2000/svg">
<g id="cow">
<g id="body">
<g id="Group 350">
<g id="Vector">
<path d="M176.459 212.278L173.829 202.635C180.527 199.737 185.226 195.621 185.226 195.621C185.226 195.621 185.226 204.388 193.993 212.278L185.226 221.045L183.473 234.195C183.704 234.283 183.93 234.37 184.151 234.46C187.227 235.699 189.389 237.152 192.239 240.332C193.532 242.846 194.001 244.331 193.993 247.345L187.856 248.222L179.089 247.345V241.208C177.649 237.445 175.973 236.303 172.076 235.948V232.442L175.583 228.058C178.213 223.675 178.167 216.513 176.459 212.278Z" fill="#00FF19" fill-opacity="0.78"/>
<path d="M173.829 202.635L173.631 202.176L173.233 202.348L173.347 202.766L173.829 202.635ZM176.459 212.278L175.977 212.41L175.985 212.438L175.996 212.465L176.459 212.278ZM175.583 228.058L175.973 228.371L175.994 228.344L176.011 228.316L175.583 228.058ZM172.076 232.442L171.685 232.129L171.576 232.266V232.442H172.076ZM172.076 235.948H171.576V236.405L172.031 236.446L172.076 235.948ZM179.089 247.345H178.589V247.798L179.04 247.843L179.089 247.345ZM187.856 248.222L187.806 248.719L187.867 248.725L187.927 248.717L187.856 248.222ZM193.993 247.345L194.064 247.84L194.492 247.779L194.493 247.346L193.993 247.345ZM192.239 240.332L192.684 240.103L192.655 240.046L192.612 239.998L192.239 240.332ZM183.473 234.195L182.977 234.129L182.925 234.522L183.296 234.663L183.473 234.195ZM185.226 221.045L184.873 220.691L184.753 220.811L184.73 220.979L185.226 221.045ZM193.993 212.278L194.346 212.632L194.719 212.259L194.327 211.907L193.993 212.278ZM185.226 195.621H185.726C185.726 195.425 185.611 195.247 185.433 195.166C185.254 195.085 185.044 195.116 184.897 195.245L185.226 195.621ZM173.347 202.766L175.977 212.41L176.942 212.147L174.312 202.503L173.347 202.766ZM175.996 212.465C176.818 214.504 177.25 217.28 177.148 220.094C177.046 222.91 176.411 225.705 175.154 227.801L176.011 228.316C177.384 226.028 178.042 223.051 178.147 220.13C178.253 217.209 177.809 214.287 176.923 212.091L175.996 212.465ZM175.192 227.746L171.685 232.129L172.466 232.754L175.973 228.371L175.192 227.746ZM171.576 232.442V235.948H172.576V232.442H171.576ZM172.031 236.446C173.946 236.621 175.231 236.983 176.207 237.703C177.182 238.42 177.917 239.543 178.622 241.387L179.556 241.03C178.822 239.11 177.998 237.78 176.8 236.898C175.605 236.017 174.102 235.631 172.121 235.45L172.031 236.446ZM178.589 241.208V247.345H179.589V241.208H178.589ZM179.04 247.843L187.806 248.719L187.906 247.724L179.139 246.848L179.04 247.843ZM187.927 248.717L194.064 247.84L193.922 246.85L187.785 247.727L187.927 248.717ZM194.493 247.346C194.497 245.813 194.38 244.642 194.087 243.525C193.796 242.41 193.336 241.372 192.684 240.103L191.795 240.56C192.435 241.806 192.856 242.768 193.12 243.778C193.383 244.785 193.497 245.864 193.493 247.344L194.493 247.346ZM192.612 239.998C189.714 236.766 187.49 235.266 184.338 233.996L183.964 234.923C186.963 236.132 189.063 237.538 191.867 240.666L192.612 239.998ZM184.338 233.996C184.113 233.905 183.884 233.816 183.65 233.727L183.296 234.663C183.524 234.749 183.747 234.836 183.964 234.923L184.338 233.996ZM183.968 234.261L185.722 221.111L184.73 220.979L182.977 234.129L183.968 234.261ZM185.58 221.398L194.346 212.632L193.639 211.925L184.873 220.691L185.58 221.398ZM179.489 241.508L184.551 234.76L183.751 234.16L178.689 240.908L179.489 241.508ZM184.551 234.76L184.749 234.495L183.949 233.895L183.751 234.16L184.551 234.76ZM185.226 195.621C184.726 195.621 184.726 195.622 184.726 195.622C184.726 195.622 184.726 195.622 184.726 195.623C184.726 195.623 184.726 195.624 184.726 195.625C184.726 195.627 184.726 195.629 184.726 195.632C184.726 195.637 184.726 195.645 184.726 195.655C184.727 195.674 184.727 195.702 184.728 195.738C184.731 195.81 184.735 195.913 184.744 196.047C184.762 196.314 184.798 196.7 184.868 197.186C185.009 198.158 185.29 199.532 185.849 201.154C186.969 204.401 189.204 208.641 193.658 212.65L194.327 211.907C190.015 208.026 187.867 203.937 186.795 200.828C186.258 199.272 185.991 197.961 185.858 197.043C185.791 196.584 185.758 196.223 185.742 195.98C185.734 195.858 185.73 195.766 185.728 195.706C185.727 195.675 185.726 195.653 185.726 195.639C185.726 195.632 185.726 195.627 185.726 195.624C185.726 195.622 185.726 195.621 185.726 195.621C185.726 195.621 185.726 195.621 185.726 195.621C185.726 195.621 185.726 195.621 185.726 195.621C185.726 195.621 185.726 195.621 185.226 195.621ZM174.028 203.094C177.415 201.628 180.293 199.857 182.324 198.453C183.34 197.75 184.145 197.139 184.697 196.702C184.974 196.483 185.187 196.309 185.332 196.188C185.404 196.127 185.459 196.08 185.497 196.048C185.516 196.032 185.53 196.02 185.54 196.011C185.545 196.007 185.548 196.004 185.551 196.001C185.552 196 185.553 195.999 185.554 195.999C185.555 195.998 185.555 195.998 185.555 195.998C185.555 195.998 185.555 195.998 185.555 195.998C185.555 195.998 185.556 195.997 185.226 195.621C184.897 195.245 184.897 195.245 184.897 195.245C184.897 195.245 184.897 195.245 184.897 195.245C184.897 195.245 184.896 195.245 184.896 195.246C184.896 195.246 184.895 195.246 184.894 195.247C184.892 195.249 184.889 195.252 184.885 195.255C184.877 195.263 184.864 195.274 184.847 195.288C184.812 195.318 184.76 195.362 184.691 195.42C184.552 195.536 184.346 195.705 184.077 195.918C183.539 196.343 182.751 196.941 181.755 197.63C179.762 199.009 176.942 200.744 173.631 202.176L174.028 203.094Z" fill="black"/>
</g>
</g>
<g id="Group 351">
<g id="Vector_2">
<path d="M73.2786 228.532C73.2786 228.532 75.905 223.601 75.0319 218.888C74.1573 214.167 70.1646 210.81 68.6257 209.67C70.4419 206.635 72.4019 203.985 72.4019 203.985C72.4019 203.985 75.3924 200.229 78.1332 197.375L83.7987 202.231V218.012L90.8121 232.038L94.3188 234.668L97.8255 239.928C97.8255 239.928 94.2273 241.963 91.6887 242.558C88.3554 243.34 82.922 242.558 82.922 242.558L82.0453 236.422C81.1686 229.408 75.9086 229.408 73.2786 228.532Z" fill="#467D00"/>
<path d="M82.0453 236.422C81.1686 229.408 75.9086 229.408 73.2786 228.532C73.2786 228.532 75.905 223.601 75.0319 218.888C74.1573 214.167 70.1646 210.81 68.6257 209.67C70.4419 206.635 72.4019 203.985 72.4019 203.985C72.4019 203.985 75.3924 200.229 78.1332 197.375L83.7987 202.231V218.012L90.8121 232.038M82.0453 236.422L82.922 242.558C82.922 242.558 88.3554 243.34 91.6887 242.558C94.2273 241.963 97.8255 239.928 97.8255 239.928L94.3188 234.668L90.8121 232.038M82.0453 236.422L90.8121 232.038" stroke="black"/>
</g>
</g>
<g id="Group 359">
<g id="Vector_3">
<path fill-rule="evenodd" clip-rule="evenodd" d="M15.1501 124.705C20.4458 123.885 27.4236 118.569 27.4236 118.569C31.4074 114.556 33.7359 104.127 35.66 95.5092C35.84 94.703 36.0164 93.9127 36.1903 93.145C38.1913 87.2422 40.0851 84.2345 43.535 78.7553C43.9817 78.0457 44.4546 77.2948 44.9571 76.4907C49.3405 69.4773 56.3539 65.9652 70.3807 58.9546C81.1605 47.5435 87.8124 52.1826 94.6492 56.9506C97.2645 58.7745 99.9069 60.6173 102.818 61.5877C109.122 63.6896 113.233 63.9695 118.099 64.3008C120.572 64.4692 123.239 64.6508 126.488 65.0913C130.065 65.5764 133.089 66.2516 135.947 66.8899C141.292 68.0837 146.059 69.1483 152.788 68.598C161.289 67.9029 164.638 66.3566 166.933 65.2969C168.425 64.6081 169.472 64.1249 171.198 64.2147C173.208 64.3192 175.955 65.4342 179.27 66.7799C183.186 68.3691 187.893 70.2801 193.115 71.2281C199.621 72.4091 208.895 65.0913 208.895 65.0913C212.527 68.2923 214.855 69.5344 220.292 70.3514C219.826 90.3868 222.345 102.095 234.319 120.324C219.416 131.724 219.299 148.167 219.416 167.662C218.758 178.887 212.593 183.251 206.605 187.49L206.265 187.731C206.011 205.872 207.668 216.944 210.649 235.071L202.884 242.961L201.882 241.208L198.375 240.331C199.862 227.94 199.362 221.849 194.869 213.154C191.162 211.444 187.678 207.533 185.225 196.498C181.12 200.603 170.492 204.79 167.346 206.029L167.344 206.029C167.132 206.113 166.955 206.183 166.815 206.239C152.38 212.004 144.348 209.851 131.467 206.398L130.871 206.239C125.77 204.872 122.461 202.863 119.18 200.871C115.992 198.935 112.83 197.016 108.078 195.719C97.7068 192.887 91.4164 192.426 80.9008 199.223C70.3852 206.02 65.971 211.834 58.9839 222.016C58.5047 222.715 58.0587 223.323 57.6398 223.895C56.4611 225.504 55.4957 226.821 54.6005 229.03L54.524 229.218C53.2552 232.347 52.4226 234.4 52.8472 237.796C53.1158 239.945 54.6005 243.057 54.6005 243.057C53.0951 242.316 46.7348 246.356 44.9571 250.072C44.9059 244.509 40.5474 242.891 38.3251 242.065C37.4894 241.755 36.9558 241.557 37.067 241.303C44.6071 239.202 52.8472 212.375 50.2172 180.813C49.7946 175.741 49.3173 170.891 48.8554 166.197C46.2897 140.123 44.1994 118.88 54.6005 91.3916C59.1726 79.3083 72.134 63.338 72.134 63.338C72.134 63.338 51.0938 72.9814 44.0804 84.3782C37.067 95.775 33.5603 119.445 33.5603 119.445C33.5603 119.445 32.6836 126.459 27.4236 136.102C22.1635 145.746 18.6568 147.499 18.6568 147.499L22.1635 142.239L24.7936 136.102C24.7936 136.102 21.9844 140.679 19.5335 142.239C16.7933 143.982 12.5201 143.992 12.5201 143.992L19.5335 138.732C19.5335 138.732 14.4666 140.485 11.6434 140.485C8.82023 140.485 4.63003 138.732 4.63003 138.732C6.97405 138.397 8.67855 138.318 10.1344 138.251C12.4899 138.141 14.1944 138.062 16.9035 136.979C18.757 136.237 21.2869 134.349 21.2869 134.349C21.2869 134.349 15.5598 133.985 10.7668 133.472C5.97367 132.958 2 128.212 2 128.212C2 128.212 6.738 129.8 9.89008 129.965C12.986 130.128 17.7802 129.089 17.7802 129.089C17.7802 129.089 12.437 128.362 9.0134 127.335C5.58977 126.308 4.63003 123.829 4.63003 123.829C4.63003 123.829 11.0761 125.336 15.1501 124.705Z" fill="#8FFF00"/>
<path d="M58.1072 247.44C56.9585 245.573 54.6005 243.057 54.6005 243.057C53.0951 242.316 46.7348 246.356 44.9571 250.072V256.207C44.9571 256.207 50.9423 257.101 54.6005 256.207C57.1333 255.588 60.7373 253.577 60.7373 253.577C60.7373 253.577 59.4735 249.661 58.1072 247.44Z" fill="#620DF8"/>
<path d="M217.662 241.208L210.649 235.071L202.884 242.961L205.389 247.345L213.279 249.098L220.292 248.222L217.662 241.208Z" fill="#5B5C6C"/>
<path d="M206.265 187.731C208.048 173.119 209.651 165.494 215.032 154.417M206.265 187.731C206.011 205.872 207.668 216.944 210.649 235.071M206.265 187.731C206.379 187.651 206.492 187.571 206.605 187.49M206.265 187.731L206.605 187.49M130.871 206.239C125.77 204.872 122.461 202.863 119.18 200.871C115.992 198.935 112.83 197.016 108.078 195.719C97.7068 192.887 91.4164 192.426 80.9008 199.223C70.3852 206.02 65.971 211.834 58.9839 222.016C58.5047 222.715 58.0587 223.323 57.6398 223.895C56.4611 225.504 55.4957 226.821 54.6005 229.03M130.871 206.239C131.071 206.292 131.27 206.345 131.467 206.398M130.871 206.239L131.467 206.398M54.6005 229.03L54.524 229.218M54.6005 229.03C54.5749 229.093 54.5493 229.156 54.524 229.218M54.6005 243.057C54.6005 243.057 53.1158 239.945 52.8472 237.796C52.4226 234.4 53.2552 232.347 54.524 229.218M54.6005 243.057C54.6005 243.057 56.9585 245.573 58.1072 247.44C59.4735 249.661 60.7373 253.577 60.7373 253.577C60.7373 253.577 57.1333 255.588 54.6005 256.207C50.9423 257.101 44.9571 256.207 44.9571 256.207M54.6005 243.057C53.0951 242.316 46.7348 246.356 44.9571 250.072M44.9571 256.207C44.9571 256.207 44.9571 252.469 44.9571 250.072M44.9571 256.207V250.072M44.9571 250.072C44.9059 244.509 40.5474 242.891 38.3251 242.065C37.4894 241.755 36.9558 241.557 37.067 241.303C44.6071 239.202 52.8472 212.375 50.2172 180.813C49.7946 175.741 49.3173 170.891 48.8554 166.197C46.2897 140.123 44.1994 118.88 54.6005 91.3916C59.1726 79.3083 72.134 63.338 72.134 63.338C72.134 63.338 51.0938 72.9814 44.0804 84.3782C37.067 95.775 33.5603 119.445 33.5603 119.445C33.5603 119.445 32.6836 126.459 27.4236 136.102C22.1635 145.746 18.6568 147.499 18.6568 147.499L22.1635 142.239L24.7936 136.102C24.7936 136.102 21.9844 140.679 19.5335 142.239C16.7933 143.982 12.5201 143.992 12.5201 143.992L19.5335 138.732C19.5335 138.732 14.4666 140.485 11.6434 140.485C8.82023 140.485 4.63003 138.732 4.63003 138.732C6.97405 138.397 8.67855 138.318 10.1344 138.251C12.4899 138.141 14.1944 138.062 16.9035 136.979C18.757 136.237 21.2869 134.349 21.2869 134.349C21.2869 134.349 15.5598 133.985 10.7668 133.472C5.97367 132.958 2 128.212 2 128.212C2 128.212 6.738 129.8 9.89008 129.965C12.986 130.128 17.7802 129.089 17.7802 129.089C17.7802 129.089 12.437 128.362 9.0134 127.335C5.58977 126.308 4.63003 123.829 4.63003 123.829C4.63003 123.829 11.0761 125.336 15.1501 124.705C20.4458 123.885 27.4236 118.569 27.4236 118.569C31.4074 114.556 33.7359 104.127 35.66 95.5092C35.84 94.703 36.0164 93.9127 36.1903 93.145C38.1913 87.2422 40.0851 84.2345 43.535 78.7553C43.9817 78.0457 44.4546 77.2948 44.9571 76.4907C49.3405 69.4773 56.3539 65.9652 70.3807 58.9546C81.1605 47.5435 87.8124 52.1826 94.6492 56.9506C97.2645 58.7745 99.9069 60.6173 102.818 61.5877C109.122 63.6896 113.233 63.9695 118.099 64.3008C120.572 64.4692 123.239 64.6508 126.488 65.0913C130.065 65.5764 133.089 66.2516 135.947 66.8899C141.292 68.0837 146.059 69.1483 152.788 68.598C161.289 67.9029 164.638 66.3566 166.933 65.2969C168.425 64.6081 169.472 64.1249 171.198 64.2147C173.208 64.3192 175.955 65.4342 179.27 66.7799C183.186 68.3691 187.893 70.2801 193.115 71.2281C199.621 72.4091 208.895 65.0913 208.895 65.0913C212.527 68.2923 214.855 69.5344 220.292 70.3514C219.826 90.3868 222.345 102.095 234.319 120.324C219.416 131.724 219.299 148.167 219.416 167.662C218.758 178.887 212.593 183.251 206.605 187.49M185.225 196.498C187.678 207.533 191.162 211.444 194.869 213.154C199.362 221.849 199.862 227.94 198.375 240.331L201.882 241.208L202.884 242.961M185.225 196.498C187.63 182.966 186.759 175.461 180.842 162.307M185.225 196.498C181.12 200.603 170.492 204.79 167.346 206.029L167.344 206.029C167.132 206.113 166.955 206.183 166.815 206.239C152.38 212.004 144.348 209.851 131.467 206.398M210.649 235.071L217.662 241.208L220.292 248.222L213.279 249.098L205.389 247.345L202.884 242.961M210.649 235.071L202.884 242.961" stroke="black"/>
</g>
<g id="Group 355">
<path id="Vector 50" d="M64.7814 118.515C64.7814 118.515 58.3033 121.155 56.0146 124.652C52.6397 129.808 51.0188 136.824 56.0146 140.432C59.6227 143.038 64.3482 137.203 67.4114 140.432C69.5839 142.722 66.9328 146.09 69.1648 148.322C72.3212 151.479 80.5615 150.185 80.5615 147.446V140.432C80.5615 137.693 83.4049 136.421 85.8216 136.926C88.685 137.523 85.5344 143.724 88.4516 143.939C90.6379 144.1 91.9378 142.432 92.835 140.432C94.1643 137.469 89.5548 135.724 90.205 132.542C90.8368 129.45 95.6634 129.556 95.465 126.405C95.2982 123.755 93.3822 122.569 91.1291 121.175L91.0816 121.145C87.2974 118.803 83.5881 123.284 79.6849 121.145C75.7701 119.001 77.9587 112.19 73.5481 111.502C69.2161 110.827 64.7814 118.515 64.7814 118.515Z" fill="#FF00C7" stroke="black"/>
<path id="Vector 51" d="M200.379 77.6456C198.407 83.0183 195.087 82.8611 193.543 81.4115C191.999 79.9618 186.494 83.4413 186.123 88.0004C185.858 91.2548 188.06 93.7728 189.847 94.5921C192.903 95.9937 193.244 98.3176 192.487 104.007C191.447 111.82 201.816 117.047 203.576 109.656C204.857 104.277 206.72 102.967 211.468 102.123C214.607 101.565 217.25 92.2204 215.165 88.0004C214.101 85.8478 210.43 84.8953 209.913 77.6456C209.395 70.3958 202.351 72.2728 200.379 77.6456Z" fill="#FF00C7" stroke="black"/>
<path id="123456789" d="M171.374 93.0369C152.68 92.1509 147.913 107.538 106.417 105.681C97.1707 105.267 136.01 121.339 139.912 130.036C145.777 143.107 98.3743 131.732 106.421 144.037C117.384 160.802 158.245 175.299 177.536 164.361C195.975 153.905 164.098 147.422 157.86 130.036C151.513 112.345 194.328 94.1247 171.374 93.0369Z" fill="#FF0000" stroke="black"/>
</g>
</g>
</g>
<g id="footer">
<g id="Vector_4">
<path d="M83.9381 223.39C76.4791 224.614 80.7796 214.839 79.5547 214.227C79.5547 214.227 77.3606 213.134 76.048 212.279C73.6065 210.688 70.3826 207.423 70.3826 207.423C70.8207 206.966 71.2525 206.533 71.6647 206.142C85.9826 192.554 96.4978 192.115 97.0883 192.115C110.238 192.115 117.79 200.492 118.6 200.882C117.778 206.668 116.382 208.889 106.732 214.032C106.732 214.032 108.756 219.791 107.608 221.922C106.797 223.429 105.453 223.85 104.102 222.799C103.497 222.329 103.567 221.73 103.225 221.046C102.354 222.157 97.9649 224.552 97.9649 217.539C93.033 218.983 91.9263 218.341 88.3215 217.539C88.9585 219.874 88.9735 225.702 86.5681 225.429C83.507 225.081 83.9381 223.39 83.9381 223.39Z" fill="#00FFD1"/>
<path d="M83.9381 223.39V216.662C82.5687 216.054 81.8437 215.371 79.5547 214.227M83.9381 223.39C76.4791 224.614 80.7796 214.839 79.5547 214.227M83.9381 223.39C83.9381 223.39 83.507 225.081 86.5681 225.429C88.9735 225.702 88.9585 219.874 88.3215 217.539C91.9263 218.341 93.033 218.983 97.9649 217.539M79.5547 214.227C79.5547 214.227 77.3606 213.134 76.048 212.279C73.6065 210.688 70.3826 207.423 70.3826 207.423C70.8207 206.966 71.2525 206.533 71.6647 206.142C85.9826 192.554 96.4978 192.115 97.0883 192.115C110.238 192.115 117.79 200.492 118.6 200.882C117.778 206.668 116.382 208.889 106.732 214.032C106.732 214.032 108.756 219.791 107.608 221.922C106.797 223.429 105.453 223.85 104.102 222.799C103.497 222.329 103.567 221.73 103.225 221.046M97.9649 217.539C97.9649 224.552 102.354 222.157 103.225 221.046M97.9649 217.539C99.7183 217.393 102.348 215.785 102.348 215.785C102.348 215.785 102.54 218.991 103.225 221.046" stroke="#FF478E"/>
</g>
</g>
<g id="header">
<g id="Vector_5">
<path d="M231.519 120.371H225.382C225.382 120.371 216.827 119.262 214.862 115.111C213.244 111.693 214.788 109.127 215.738 105.467C217.719 97.8384 221.288 94.0953 227.135 88.8103C230.236 86.0081 232.193 84.5995 235.902 82.6736C243.946 78.4961 249.645 77.7815 258.695 78.2902C263.924 78.5841 267.121 78.6605 271.846 80.9202C279.284 84.4779 283.939 88.6851 285.872 96.7004C286.836 100.694 287.315 103.374 285.872 107.22C282.967 114.967 266.586 115.987 266.586 115.987C266.718 116.531 259.333 125.719 252.559 127.384C242.519 129.852 230.423 121.385 231.519 120.371Z" fill="#BCEA73"/>
<path d="M231.519 120.371H225.382C225.382 120.371 216.827 119.262 214.862 115.111C213.244 111.693 214.788 109.127 215.738 105.467C217.719 97.8384 221.288 94.0953 227.135 88.8103C230.236 86.0081 232.193 84.5995 235.902 82.6736C243.946 78.4961 249.645 77.7815 258.695 78.2902C263.924 78.5841 267.121 78.6605 271.846 80.9202C279.284 84.4779 283.939 88.6851 285.872 96.7004C286.836 100.694 287.315 103.374 285.872 107.22C282.967 114.967 266.586 115.987 266.586 115.987M231.519 120.371C230.423 121.385 242.519 129.852 252.559 127.384C259.333 125.719 266.718 116.531 266.586 115.987M231.519 120.371C245.576 120.184 253.537 119.316 266.586 115.987M270.092 102.837C268.171 104.906 265.747 105.512 263.079 104.59C260.551 103.717 259.42 101.904 258.695 99.3304C257.185 93.9659 263.448 88.8915 268.339 88.8105M228.888 93.1921C229.74 92.3154 236.35 94.3235 238.532 96.7005C245.294 104.068 233.068 114.261 227.135 109.849" stroke="black"/>
</g>
<g id="Vector_6">
<path d="M280.574 86.8141L280.784 86.9142C277.489 74.5231 266.066 57.1073 280.784 57.1073C295.502 57.1073 298.18 57.5216 307.502 52.5C319.832 45.8573 324.842 37.1249 329.001 23.7936C329.001 23.7936 315.545 25.6777 308.837 21.1636C302.129 16.6494 292.181 22.9169 288.674 24.6703C285.167 26.4236 276.4 27.3003 274.647 22.9169C270.508 16.5841 265.87 13.631 254.483 15.0268C257.125 11.5706 254.483 1 254.483 1C254.483 1 256.237 8.89011 247.47 14.1502C250.012 9.23758 249.501 6.8314 247.47 2.75336C246.708 8.0823 244.133 10.9819 240.457 14.1502C242.572 8.01344 243.087 1.87668 243.087 1.87668L236.95 9.32845L230.813 16.7802C230.813 16.7802 224.143 24.3923 218.54 27.3003C214.696 29.2952 214.677 28.8441 208.02 30.807C197.763 32.8735 195.485 31.6332 185.226 29.9303C177.457 30.4389 174.616 32.1761 171.199 36.9437C166.545 43.1519 163.667 45.6544 158.049 47.4638C152.432 49.2733 147.529 47.4638 147.529 47.4638L156.296 57.9839C164.442 64.2209 170.01 66.9021 179.966 69.3807C187.636 71.2903 192.578 73.4681 200.13 71.1341C205.122 69.5909 207.076 66.1749 211.526 64.1207C215.41 62.2564 216.899 62.6463 217.663 67.6274C219.414 82.0111 219.076 88.3145 217.663 102.694C220.763 99.8922 226.43 89.5442 236.95 83.4075C244.78 78.8402 250.693 78.5155 259.744 79.0242C264.897 79.3138 275.739 84.5009 280.574 86.8141Z" fill="#BCEA73"/>
<path d="M290.917 29.0537C290.917 29.0537 297.866 30.4197 301.824 30.807C306.935 31.3072 314.974 29.9303 314.974 29.9303C314.974 29.9303 309.977 37.3732 306.207 40.4504C302.438 43.5277 293.934 46.5872 293.934 46.5872M199.253 57.1073C193.823 57.5694 188.03 64.7413 179.966 61.4907C177.486 60.491 165.062 55.3539 165.062 55.3539C165.062 55.3539 179.057 46.6993 184.057 37.8204M203.636 36.9437C201.082 38.6408 197.499 38.6971 193.115 38.6971C188.732 38.6971 184.057 37.8204 184.057 37.8204M179.966 36.9437L184.057 37.8204M156.296 57.9839L147.529 47.4638C147.529 47.4638 152.432 49.2733 158.049 47.4638C163.667 45.6544 166.545 43.1519 171.199 36.9437C174.616 32.1761 177.457 30.4389 185.226 29.9303C195.485 31.6332 197.763 32.8735 208.02 30.807C214.677 28.8441 214.696 29.2952 218.54 27.3003C224.143 24.3923 230.813 16.7802 230.813 16.7802L236.95 9.32845L243.087 1.87668C243.087 1.87668 242.572 8.01344 240.457 14.1502C244.133 10.9819 246.708 8.0823 247.47 2.75336C249.501 6.8314 250.012 9.23758 247.47 14.1502C256.237 8.89011 254.483 1 254.483 1C254.483 1 257.125 11.5706 254.483 15.0268C265.87 13.631 270.508 16.5841 274.647 22.9169C276.4 27.3003 285.167 26.4236 288.674 24.6703C292.181 22.9169 302.129 16.6494 308.837 21.1636C315.545 25.6777 329.001 23.7936 329.001 23.7936C324.842 37.1249 319.832 45.8573 307.502 52.5C298.18 57.5216 295.502 57.1073 280.784 57.1073C266.066 57.1073 277.489 74.5231 280.784 86.9142C276.059 84.6545 264.972 79.3181 259.744 79.0242C250.693 78.5155 244.78 78.8402 236.95 83.4075C226.43 89.5442 220.763 99.8922 217.663 102.694C219.076 88.3145 219.414 82.0111 217.663 67.6274C216.899 62.6463 215.41 62.2564 211.526 64.1207C207.076 66.1749 205.122 69.5909 200.13 71.1341C192.578 73.4681 187.636 71.2903 179.966 69.3807C170.01 66.9021 164.442 64.2209 156.296 57.9839Z" stroke="black"/>
</g>
<g id="Group 360">
<g id="Vector_7">
<path fill-rule="evenodd" clip-rule="evenodd" d="M232.728 54.4185C232.728 54.4185 220.609 56.6398 217.825 53.5418C214.613 49.9676 215.804 45.1018 218.702 41.2684C219.706 39.9399 220.905 38.6595 222.209 37.7015C221.151 48.4022 224.007 48.5015 232.346 43.0217C232.648 44.5064 232.728 45.6517 232.728 45.6517V54.4185Z" fill="white"/>
<path d="M222.209 37.7015C221.151 48.4022 224.007 48.5015 232.346 43.0217C232.085 41.7368 231.658 40.1976 230.975 38.9266C226.998 41.779 225.498 41.1767 223.962 36.6574C223.362 36.9294 222.776 37.285 222.209 37.7015Z" fill="#A6DFFF"/>
<path d="M230.975 38.9266C230.516 38.0719 229.941 37.3384 229.222 36.885C227.478 35.7851 225.669 35.8827 223.962 36.6574C225.498 41.1767 226.998 41.779 230.975 38.9266Z" fill="#FF7C7C"/>
<path d="M232.346 43.0217C232.648 44.5064 232.728 45.6517 232.728 45.6517V54.4185C232.728 54.4185 220.609 56.6398 217.825 53.5418C214.613 49.9676 215.804 45.1018 218.702 41.2684C219.706 39.9399 220.905 38.6595 222.209 37.7015M232.346 43.0217C224.007 48.5015 221.151 48.4022 222.209 37.7015M232.346 43.0217C232.085 41.7368 231.658 40.1976 230.975 38.9266M222.209 37.7015C222.776 37.285 223.362 36.9294 223.962 36.6574M230.975 38.9266C230.516 38.0719 229.941 37.3384 229.222 36.885C227.478 35.7851 225.669 35.8827 223.962 36.6574M230.975 38.9266C226.998 41.779 225.498 41.1767 223.962 36.6574" stroke="black"/>
</g>
<g id="Vector_8">
<path fill-rule="evenodd" clip-rule="evenodd" d="M256.237 52.6651C256.237 52.6651 268.356 54.8864 271.14 51.7884C274.352 48.2142 273.161 43.3483 270.263 39.515C269.259 38.1865 268.061 36.9061 266.757 35.9481C267.814 46.6488 264.958 46.7481 256.619 41.2683C256.317 42.753 256.237 43.8983 256.237 43.8983V52.6651Z" fill="white"/>
<path d="M266.757 35.9481C267.814 46.6488 264.958 46.7481 256.619 41.2683C256.88 39.9834 257.307 38.4442 257.99 37.1732C261.967 40.0256 263.467 39.4233 265.003 34.9039C265.603 35.176 266.19 35.5316 266.757 35.9481Z" fill="#A6DFFF"/>
<path d="M257.99 37.1732C258.449 36.3185 259.024 35.585 259.743 35.1316C261.487 34.0317 263.296 34.1293 265.003 34.9039C263.467 39.4233 261.967 40.0256 257.99 37.1732Z" fill="#FF7C7C"/>
<path d="M256.619 41.2683C256.317 42.753 256.237 43.8983 256.237 43.8983V52.6651C256.237 52.6651 268.356 54.8864 271.14 51.7884C274.352 48.2142 273.161 43.3483 270.263 39.515C269.259 38.1865 268.061 36.9061 266.757 35.9481M256.619 41.2683C264.958 46.7481 267.814 46.6488 266.757 35.9481M256.619 41.2683C256.88 39.9834 257.307 38.4442 257.99 37.1732M266.757 35.9481C266.19 35.5316 265.603 35.176 265.003 34.9039M257.99 37.1732C258.449 36.3185 259.024 35.585 259.743 35.1316C261.487 34.0317 263.296 34.1293 265.003 34.9039M257.99 37.1732C261.967 40.0256 263.467 39.4233 265.003 34.9039" stroke="black"/>
</g>
</g>
<g id="Vector_9">
<path d="M224.508 66.7005C224.508 66.7005 218.371 71.0839 207.851 64.0705C198.57 58.7321 199.627 47.0927 205.994 39.5714C206.347 39.1542 206.716 38.7497 207.101 38.3597C211.562 33.8393 218.102 31.2592 225.384 33.3868C239.172 36.3134 247.581 34.9683 263.081 30.7568C267.885 29.3533 272.366 29.9983 276.14 31.8976C280.537 34.8148 283.777 38.6469 283.777 38.6469C285.597 41.2847 286.811 44.2818 287.241 47.2738C288.031 52.764 286.185 58.2368 280.615 61.4404C278.341 62.9563 276.272 63.9397 274.426 64.5501C267.729 66.7638 263.958 64.0705 263.958 64.0705C256.912 57.7307 252.098 52.6663 249.544 48.4983C244.25 39.8577 248.673 35.0694 263.081 30.7568C247.581 34.9683 239.172 36.3134 225.384 33.3868C246.743 39.7797 246.159 47.218 224.508 66.7005Z" fill="#FF0000"/>
<path d="M225.384 33.3868C246.743 39.7797 246.159 47.218 224.508 66.7005C224.508 66.7005 218.371 71.0839 207.851 64.0705C198.57 58.7321 199.627 47.0927 205.994 39.5714C206.347 39.1542 206.716 38.7497 207.101 38.3597M225.384 33.3868C218.102 31.2592 211.562 33.8393 207.101 38.3597M225.384 33.3868C239.172 36.3134 247.581 34.9683 263.081 30.7568M263.081 30.7568C248.673 35.0694 244.25 39.8577 249.544 48.4983M263.081 30.7568C267.885 29.3533 272.366 29.9983 276.14 31.8976C280.537 34.8148 283.777 38.6469 283.777 38.6469C285.597 41.2847 286.811 44.2818 287.241 47.2738C288.031 52.764 286.185 58.2368 280.615 61.4404C278.341 62.9563 276.272 63.9397 274.426 64.5501C267.729 66.7638 263.958 64.0705 263.958 64.0705C256.912 57.7307 252.098 52.6663 249.544 48.4983M249.544 48.4983C245.772 44.0922 243.917 44.428 240.464 48.8836M207.101 38.3597C202.334 36.26 199.012 42.4888 202.355 45.6603M207.101 38.3597C207.119 38.3676 207.137 38.3757 207.155 38.3838M286.111 43.0303C289.467 39.8468 286.107 33.583 281.31 35.7538" stroke="black"/>
</g>
</g>
</g>
</svg>
